<?xml version="1.0" standalone="no"?>
<!DOCTYPE svg PUBLIC "-//W3C//DTD SVG 20010904//EN"
 "http://www.w3.org/TR/2001/REC-SVG-20010904/DTD/svg10.dtd">
<svg version="1.0" xmlns="http://www.w3.org/2000/svg"
 width="981.000000pt" height="981.000000pt" viewBox="0 0 981.000000 981.000000"
 preserveAspectRatio="xMidYMid meet">
<metadata>
Created by potrace 1.14, written by Peter Selinger 2001-2017
</metadata>
<g transform="translate(0.000000,981.000000) scale(0.100000,-0.100000)"
fill="#000000" stroke="none">
<path d="M1035 9800 c-181 -9 -228 -21 -381 -96 -225 -112 -432 -320 -547
-549 -69 -138 -89 -214 -98 -385 -4 -85 -8 -1888 -9 -4006 l0 -3850 40 -103
c49 -126 94 -208 171 -312 123 -165 314 -322 491 -403 153 -70 136 -68 658
-76 615 -11 6461 -11 7075 -1 447 8 473 9 540 31 313 99 635 398 756 701 51
130 51 125 59 539 11 501 11 6711 1 7240 -7 372 -9 399 -31 465 -65 203 -219
423 -395 564 -132 106 -222 158 -377 217 l-90 34 -3851 -2 c-2119 -1 -3924 -5
-4012 -8z m7703 -329 c187 -28 433 -189 569 -371 59 -78 112 -190 128 -268 37
-175 40 -418 40 -3937 0 -3537 -2 -3738 -40 -3902 -62 -265 -372 -569 -630
-618 -192 -37 -436 -40 -3905 -40 -3952 0 -3855 -2 -4040 86 -230 109 -446
355 -495 561 -39 165 -40 298 -40 3928 0 3531 2 3731 35 3910 14 80 99 243
167 325 76 91 199 189 309 247 162 85 111 80 979 88 1213 12 6836 5 6923 -9z"/>
<path d="M2570 4915 l0 -3125 2330 0 2330 0 0 358 0 359 -1372 6 c-755 4
-1616 7 -1914 7 l-541 0 -6 683 c-4 375 -7 852 -7 1060 l0 377 1730 0 1730 0
0 368 0 369 -817 6 c-450 4 -1226 7 -1725 7 l-908 0 0 953 0 954 392 6 c215 4
1037 7 1827 7 887 0 1442 4 1451 10 13 8 15 62 18 365 l3 355 -2261 0 -2260 0
0 -3125z"/>
</g>
</svg>
